HIERARCHY
ROOT Hips
{
	OFFSET 0.00000 0.00000 0.00000
	CHANNELS 6 Xposition Yposition Zposition Zrotation Yrotation Xrotation 
	JOINT LHipJoint
	{
		OFFSET 0 0 0
		CHANNELS 3 Zrotation Yrotation Xrotation
		JOINT LeftHip
		{
			OFFSET 1.57093 -1.69714 0.87455
			CHANNELS 3 Zrotation Yrotation Xrotation
			JOINT LeftKnee
			{
				OFFSET 2.48056 -6.81529 0.00000
				CHANNELS 3 Zrotation Yrotation Xrotation
				JOINT LeftAnkle
				{
					OFFSET 2.62558 -7.21374 0.00000
					CHANNELS 3 Zrotation Yrotation Xrotation
					JOINT LeftToe
					{
						OFFSET 0.17911 -0.49210 2.16707
						CHANNELS 3 Zrotation Yrotation Xrotation
						End Site
						{
							OFFSET 0.00000 -0.00000 1.11848
						}
					}
				}
			}
		}
	}
	JOINT RHipJoint
	{
		OFFSET 0 0 0
		CHANNELS 3 Zrotation Yrotation Xrotation
		JOINT RightHip
		{
			OFFSET -1.69739 -1.69715 0.87455
			CHANNELS 3 Zrotation Yrotation Xrotation
			JOINT RightKnee
			{
				OFFSET -2.33658 -6.41972 0.00000
				CHANNELS 3 Zrotation Yrotation Xrotation
				JOINT RightAnkle
				{
					OFFSET -2.60856 -7.16696 0.00000
					CHANNELS 3 Zrotation Yrotation Xrotation
					JOINT RightToe
					{
						OFFSET -0.20854 -0.57296 2.11053
						CHANNELS 3 Zrotation Yrotation Xrotation
						End Site
						{
							OFFSET -0.00000 -0.00000 1.09848
						}
					}
				}
			}
		}
	}
	JOINT lowerback
	{
		OFFSET 0 0 0
		CHANNELS 3 Zrotation Yrotation Xrotation
		JOINT Chest
		{
			OFFSET 0.02563 2.15732 -0.03270
			CHANNELS 3 Zrotation Yrotation Xrotation
			JOINT Chest2
			{
				OFFSET 0.00281 2.14662 0.09285
				CHANNELS 3 Zrotation Yrotation Xrotation
				JOINT lowerneck
				{
					OFFSET 0 0 0
					CHANNELS 3 Zrotation Yrotation Xrotation
					JOINT Neck
					{
						OFFSET -0.04440 1.68397 0.17601
						CHANNELS 3 Zrotation Yrotation Xrotation
						JOINT Head
						{
							OFFSET 0.06040 1.66995 -0.35615
							CHANNELS 3 Zrotation Yrotation Xrotation
							End Site
							{
								OFFSET 0.02405 1.72189 -0.14044
							}
						}
					}
				}
				JOINT LeftCollar
				{
					OFFSET 0 0 0
					CHANNELS 3 Zrotation Yrotation Xrotation
					JOINT LeftShoulder
					{
						OFFSET 2.98955 1.90907 -0.21660
CHANNELS 3 Zrotation Xrotation Yrotation
						JOINT LeftElbow
						{
OFFSET 0 -4.913770 0.000000
CHANNELS 3 Zrotation Xrotation Yrotation
							JOINT LeftWrist
							{
OFFSET 0 -3.002910 -0.000000
CHANNELS 3 Zrotation Xrotation Yrotation
								JOINT lhand
								{
									OFFSET 0 0 0
CHANNELS 3 Zrotation Xrotation Yrotation
									JOINT LFingers
									{
OFFSET 0 -0.450920 -0.000000
CHANNELS 3 Zrotation Xrotation Yrotation
										End Site
										{
OFFSET 0 -0.363550 -0.000000
										}
									}
								}
								JOINT LThumb
								{
OFFSET 0 0.000000 0.000000
CHANNELS 3 Zrotation Xrotation Yrotation
									End Site
									{
OFFSET 0 -0.369100 0.369100
									}
								}
							}
						}
					}
				}
				JOINT RightCollar
				{
					OFFSET 0 0 0
					CHANNELS 3 Zrotation Yrotation Xrotation
					JOINT RightShoulder
					{
						OFFSET -2.80452 1.90886 -0.21152
CHANNELS 3 Zrotation Xrotation Yrotation
						JOINT RightElbow
						{
OFFSET 0 -4.867250 0.000000
CHANNELS 3 Zrotation Xrotation Yrotation
							JOINT RightWrist
							{
OFFSET 0 -3.171440 -0.000000
CHANNELS 3 Zrotation Xrotation Yrotation
								JOINT rhand
								{
									OFFSET 0 0 0
CHANNELS 3 Zrotation Xrotation Yrotation
									JOINT RFingers
									{
OFFSET 0 -0.419370 -0.000000
CHANNELS 3 Zrotation Xrotation Yrotation
										End Site
										{
OFFSET 0 -0.338100 -0.000000
										}
									}
								}
								JOINT RThumb
								{
OFFSET 0 0.000000 0.000000
CHANNELS 3 Zrotation Xrotation Yrotation
									End Site
									{
OFFSET 0 -0.343270 0.343270
									}
								}
							}
						}
					}
				}
			}
		}
	}
}
MOTION
Frames: 9
Frame Time: 0.008333333333333333
1.085716 14.486148 9.188563 -2.609988 2.676914 107.387349 0.000000 0.000000 0.000000 -12.037662 -17.835676 -41.287469 3.594264 11.599957 34.331058 -0.252181 9.846288 0.975190 0.322766 3.651433 10.097919 0.000000 0.000000 0.000000 14.523790 13.555804 -42.786378 -5.023395 -13.410038 40.923402 -2.661401 -7.347298 29.496146 -0.583248 -4.890285 13.595789 2.355568 -5.848680 -24.427454 -0.301521 -8.537227 -5.232114 -4.209085 -4.223343 7.299068 -6.819239 7.053769 -15.224906 -5.461342 12.205798 18.295741 0.650738 4.649861 8.183718 0.000000 0.000000 0.000000 144.108139 -28.711925 79.336617 12.781792 -20.966619 2.374660 41.741171 -14.952752 3.698178 0.000000 0.000000 0.000000 -7.125000 0.000000 0.000000 11.300230 25.019559 5.564172 0.000000 0.000000 0.000000 -39.761084 -7.921602 46.821207 -60.863520 -56.535607 -35.060581 -33.262456 1.347237 -1.018440 0.000000 0.000000 0.000000 7.125000 0.000000 0.000000 -5.207598 28.746008 -2.069162
0.999813 14.499770 9.205066 -3.458937 1.624629 107.255698 0.000000 0.000000 0.000000 -13.880498 -15.468809 -37.693001 4.288113 12.534166 37.649040 -0.064663 6.788553 2.935510 0.176823 2.708156 7.467256 0.000000 0.000000 0.000000 13.513017 15.416675 -43.891606 -3.763670 -11.838005 35.162810 -2.243014 -9.243282 26.911625 -0.601442 -4.964207 13.806595 3.103163 -6.753550 -25.004752 -1.291511 -9.908684 -5.128232 -6.153963 -4.895552 7.285431 -7.079861 7.566898 -16.355810 -5.093564 13.074476 19.205880 0.972232 4.967245 8.644606 0.000000 0.000000 0.000000 142.567230 -29.343768 77.781195 13.356563 -21.807421 2.584298 42.207926 -13.700412 5.180960 0.000000 0.000000 0.000000 -7.125000 0.000000 0.000000 11.388118 23.031203 6.143227 0.000000 0.000000 0.000000 -39.348981 -0.860210 49.989603 -60.159089 -56.352099 -34.473518 -34.029028 -0.852423 -1.742258 0.000000 0.000000 0.000000 7.125000 0.000000 0.000000 -5.745527 27.862602 -2.405495
0.918605 14.511284 9.265469 -3.415582 1.062290 107.154496 0.000000 0.000000 0.000000 -14.773484 -13.683321 -34.158150 4.980564 13.361625 40.738197 0.028420 5.425522 4.619761 0.163877 2.608217 7.189929 0.000000 0.000000 0.000000 13.175786 17.051032 -42.702989 -1.994291 -8.849504 25.328703 -1.299487 -12.496068 20.912760 -0.737207 -5.484925 15.296996 3.607946 -7.414095 -25.519405 -1.810731 -10.920654 -4.958202 -7.363995 -5.380255 7.415917 -6.996021 7.849536 -17.270710 -5.476365 13.716421 20.261772 0.979265 5.111267 9.211737 0.000000 0.000000 0.000000 141.487451 -29.980330 76.771115 13.410410 -21.885637 2.604328 42.309836 -12.226571 6.257321 0.000000 0.000000 0.000000 -7.125000 0.000000 0.000000 11.273649 21.604807 6.453926 0.000000 0.000000 0.000000 -41.447954 7.122726 52.528771 -62.565429 -56.955424 -36.483854 -35.914281 -5.083405 -2.838515 0.000000 0.000000 0.000000 7.125000 0.000000 0.000000 -7.080262 26.463296 -3.206420
0.829317 14.521621 9.305516 -2.717011 0.793917 106.942379 0.000000 0.000000 0.000000 -14.785467 -12.839495 -31.752603 6.054572 14.480187 45.198791 0.137146 4.181042 6.772281 0.242212 3.166578 8.742899 0.000000 0.000000 0.000000 13.751512 17.889119 -38.899456 -0.550229 -4.736333 13.160644 -0.293540 -15.309146 13.695041 -0.916528 -6.099740 17.074214 3.517685 -8.014255 -25.777025 -1.873880 -11.706496 -4.768794 -7.665992 -5.748519 7.654876 -6.960825 7.845712 -17.838990 -5.743630 13.935698 21.340330 0.966930 5.074548 9.725789 0.000000 0.000000 0.000000 141.331767 -29.863432 75.350275 12.809373 -21.007253 2.384581 41.479105 -11.471881 5.637804 0.000000 0.000000 0.000000 -7.125000 0.000000 0.000000 10.790317 22.510923 5.940204 0.000000 0.000000 0.000000 -46.004920 15.106839 55.907740 -65.136701 -57.530143 -38.646298 -37.190699 -11.569718 -5.120955 0.000000 0.000000 0.000000 7.125000 0.000000 0.000000 -7.768523 23.571813 -4.049592
0.748366 14.540732 9.295158 -1.917185 0.361910 106.267339 0.000000 0.000000 0.000000 -14.749050 -13.160544 -30.321283 7.475896 15.719072 50.650831 0.261227 2.228976 9.139131 0.384759 3.982904 11.028544 0.000000 0.000000 0.000000 16.505487 15.581329 -32.590423 0.000000 0.000000 0.000000 -0.111148 -15.862813 12.274092 -0.847749 -5.872051 16.413777 3.118369 -8.636716 -25.530666 -2.022115 -12.411803 -4.574452 -7.787066 -6.092979 7.699659 -6.853492 7.917374 -17.826187 -5.847295 14.114590 22.232347 0.959875 5.073992 10.061599 0.000000 0.000000 0.000000 141.542638 -29.332908 73.577475 12.154295 -20.035618 2.154907 40.728669 -11.405967 4.890736 0.000000 0.000000 0.000000 -7.125000 0.000000 0.000000 10.372063 23.554830 5.449435 0.000000 0.000000 0.000000 -51.858848 21.242793 60.824976 -64.684772 -57.433866 -38.265319 -37.395892 -20.460888 -10.140780 0.000000 0.000000 0.000000 7.125000 0.000000 0.000000 -7.243431 17.355075 -4.789598
0.694582 14.565555 9.241250 -1.452309 -0.307383 105.249497 0.000000 0.000000 0.000000 -15.201676 -13.659898 -29.801052 8.641249 16.571024 54.840691 0.349416 0.735815 10.931314 0.484508 4.463286 12.383755 0.000000 0.000000 0.000000 18.252386 14.650708 -31.792107 -0.016124 -0.350990 0.966053 -0.371068 -13.661805 13.596881 -0.731292 -5.463643 15.235753 2.736015 -9.134270 -25.013572 -2.466040 -12.928439 -4.392509 -8.125984 -6.358333 7.544373 -6.478540 8.052487 -17.701024 -6.102099 14.338158 23.138131 0.862715 5.097349 10.418848 0.000000 0.000000 0.000000 141.456297 -29.083104 71.434692 12.092646 -19.943395 2.133768 40.999067 -12.164467 4.988027 0.000000 0.000000 0.000000 -7.125000 0.000000 0.000000 10.551854 23.403546 5.584426 0.000000 0.000000 0.000000 -57.654967 24.333588 65.794869 -59.425778 -56.151765 -33.864465 -35.442859 -26.069499 -15.475382 0.000000 0.000000 0.000000 7.125000 0.000000 0.000000 -5.154710 11.269972 -4.063194
0.659951 14.579617 9.161525 -1.195272 -0.740874 104.589893 0.000000 0.000000 0.000000 -15.392661 -13.658558 -30.910709 9.057636 16.844651 56.289189 0.362148 0.988049 11.064555 0.490771 4.491913 12.464829 0.000000 0.000000 0.000000 19.035687 15.446717 -36.245916 -0.620855 -5.031091 13.999621 -0.630971 -9.313298 14.645998 -0.716694 -5.410053 15.081898 2.927726 -9.390050 -25.027165 -3.064413 -13.285689 -4.362524 -8.965260 -6.547330 7.337189 -6.114044 8.047608 -17.747270 -6.069004 14.320919 23.981451 0.837568 5.049056 10.761557 0.000000 0.000000 0.000000 141.097837 -29.555648 69.789260 12.551392 -20.626358 2.292862 41.023038 -12.628886 5.909032 0.000000 0.000000 0.000000 -7.125000 0.000000 0.000000 10.420905 22.208923 5.802801 0.000000 0.000000 0.000000 -62.186866 24.874853 68.905122 -51.136745 -53.437891 -27.086191 -30.338677 -26.116982 -15.965954 0.000000 0.000000 0.000000 7.125000 0.000000 0.000000 -1.732260 11.641581 -1.352905
0.628747 14.577924 9.067689 -1.095186 -0.906837 104.644292 0.000000 0.000000 0.000000 -15.102163 -13.048093 -33.947437 8.671195 16.591096 54.945418 0.256433 3.033167 9.004414 0.469698 4.395567 12.192301 0.000000 0.000000 0.000000 20.337815 15.368076 -37.790491 -1.570986 -7.903011 22.422918 -1.128730 -6.305570 18.972469 -0.696201 -5.333629 14.862586 3.475956 -9.384584 -25.685659 -3.577892 -13.421820 -4.614192 -9.937711 -6.640176 7.103422 -5.839845 7.940990 -17.580075 -5.751912 14.035116 24.296258 0.863903 4.963592 10.832246 0.000000 0.000000 0.000000 140.880821 -30.442911 69.390114 12.812973 -21.012510 2.385833 40.869515 -10.932436 7.080646 0.000000 0.000000 0.000000 -7.125000 0.000000 0.000000 10.121795 20.714750 5.979776 0.000000 0.000000 0.000000 -65.626261 24.403117 68.811561 -43.055746 -49.773445 -20.745151 -20.089192 -26.854695 -11.388501 0.000000 0.000000 0.000000 7.125000 0.000000 0.000000 4.943773 17.892605 3.184056
0.609342 14.567122 8.960866 -1.289187 -1.115389 105.121083 0.000000 0.000000 0.000000 -14.966937 -11.861462 -38.209074 7.631926 15.840543 51.223869 0.033196 6.709293 5.497164 0.472346 4.407799 12.226988 0.000000 0.000000 0.000000 21.107720 15.405933 -38.648225 -2.712059 -10.210145 29.663266 -1.645996 -5.601856 23.090738 -0.723078 -5.433573 15.149437 3.927099 -9.203787 -26.339061 -3.939842 -13.320787 -5.059859 -10.612931 -6.640184 6.745404 -5.500380 7.841699 -17.392371 -5.450413 13.702640 24.201409 0.859713 4.897005 10.751484 0.000000 0.000000 0.000000 140.502006 -31.143823 70.178161 13.138705 -21.490116 2.503914 41.134702 -8.195186 7.501848 0.000000 0.000000 0.000000 -7.125000 0.000000 0.000000 10.237739 20.136586 6.185887 0.000000 0.000000 0.000000 -68.379620 23.649304 64.254767 -36.421062 -45.795113 -15.825464 -6.235293 -30.765167 -6.916067 0.000000 0.000000 0.000000 7.125000 0.000000 0.000000 14.979626 23.059443 8.182651
